<?xml version="1.0" encoding="utf-8"?>
<!-- Generator: Adobe Illustrator 16.0.4, SVG Export Plug-In . SVG Version: 6.00 Build 0)  -->
<!DOCTYPE svg PUBLIC "-//W3C//DTD SVG 1.1//EN" "http://www.w3.org/Graphics/SVG/1.1/DTD/svg11.dtd">
<svg version="1.1" id="Layer_1" xmlns="http://www.w3.org/2000/svg" xmlns:xlink="http://www.w3.org/1999/xlink" x="0px" y="0px"
	 width="200.545px" height="161.5px" viewBox="0 0 200.545 161.5" enable-background="new 0 0 200.545 161.5" xml:space="preserve">
<path fill="#4B36E0" d="M58.064,147.443L27.706,94.794c-4.461-7.738-4.461-20.397,0-28.135l30.359-52.623
	C62.525,6.298,73.484,0,82.416,0h-24.36c-8.932,0-19.89,6.3-24.352,14.038L3.346,66.678c-4.461,7.738-4.461,20.392,0,28.13
	l30.358,52.64c4.461,7.738,15.42,14.052,24.352,14.052h24.36C73.484,161.5,62.525,155.182,58.064,147.443z"/>
<path fill="#1B1464" d="M143.091,147.443l30.358-52.649c4.461-7.738,4.461-20.397,0-28.135l-30.358-52.623
	C138.629,6.298,127.671,0,118.739,0H82.416c-8.932,0-19.891,6.3-24.352,14.038l-30.359,52.64c-4.461,7.738-4.461,20.392,0,28.13
	l30.359,52.64c4.461,7.738,15.419,14.052,24.352,14.052h36.323C127.671,161.5,138.629,155.182,143.091,147.443z"/>
<path fill="#29ABE2" d="M142.48,14.056l30.359,52.65c4.461,7.738,4.461,20.396,0,28.135l-30.359,52.623
	c-4.461,7.738-15.419,14.036-24.352,14.036h24.36c8.932,0,19.89-6.3,24.352-14.038l30.358-52.64c4.461-7.738,4.461-20.392,0-28.13
	l-30.358-52.64C162.379,6.314,151.421,0,142.489,0h-24.36C127.061,0,138.02,6.318,142.48,14.056z"/>
<g>
	<path fill="#FFFFFF" d="M52.172,74.243c0,1.704,3.626,3.254,5.827,4.4c2.572,1.333,6.694,3.534,6.694,7.872v2.387
		c0,2.479-1.983,4.463-4.462,4.463h-6.912c-2.479,0-4.463-1.984-4.463-4.463v-4.587h2.79v4.587c0,0.992,0.682,1.673,1.673,1.673
		h6.912c0.992,0,1.673-0.682,1.673-1.673v-2.387c0-3.161-4.308-4.896-6.88-6.229c-2.417-1.271-5.641-2.944-5.641-6.043v-1.705
		c0-2.479,1.983-4.463,4.463-4.463h6.911c2.479,0,4.463,1.983,4.463,4.463H62.43c0-0.992-0.682-1.673-1.673-1.673h-6.912
		c-0.992,0-1.673,0.682-1.673,1.673V74.243z"/>
	<path fill="#FFFFFF" d="M88.959,93.055l-1.116-6.013H76.377l-1.085,6.013h-2.789l3.998-23.926c0.093-0.496,0.682-1.054,1.333-1.054
		h8.492c0.651,0,1.24,0.527,1.333,1.054l4.091,23.926H88.959z M85.303,71.268c0,0-0.062-0.403-0.31-0.403h-5.827
		c-0.248,0-0.279,0.279-0.31,0.403L76.78,84.253h10.661L85.303,71.268z"/>
	<path fill="#FFFFFF" d="M102.751,93.055h-2.79V68.262h2.79V93.055L102.751,93.055z"/>
	<path fill="#FFFFFF" d="M120.634,71.051v22.004h-2.789V71.051h-7.19v-2.789h17.169v2.789H120.634z"/>
	<path fill="#FFFFFF" d="M151.316,84.005v4.896c0,2.479-1.983,4.463-4.463,4.463h-7.593c-2.479,0-4.463-1.983-4.463-4.463V72.538
		c0-2.479,1.983-4.463,4.463-4.463h7.593c2.479,0,4.463,1.983,4.463,4.463v3.905h-2.789v-3.905c0-0.992-0.682-1.673-1.674-1.673
		h-7.593c-0.992,0-1.674,0.682-1.674,1.673v16.364c0,0.992,0.683,1.674,1.674,1.674h7.593c1.612,0,1.612-0.682,1.612-1.674v-4.896
		H151.316L151.316,84.005z"/>
</g>
</svg>
